<svg xmlns="http://www.w3.org/2000/svg" viewBox="0 0 364.9 108.17"><defs><style>.cls-1{fill:#bcbec0;}.cls-2{fill:#414042;}.cls-3{fill:#f1f2f2;}.cls-4{fill:#f4f4f6;}</style></defs><title>Bishop Tech - Full Logo</title><g id="Layer_1" data-name="Layer 1"><rect class="cls-1" x="45.84" y="42.1" width="40.96" height="44.96"/><rect class="cls-2" x="59.2" y="54.63" width="14.22" height="14.22"/><rect class="cls-3" x="3.59" y="2.95" width="14.22" height="14.22" transform="translate(10.25 -4.62) rotate(45)"/><rect class="cls-3" x="114.81" y="2.95" width="14.22" height="14.22" transform="translate(28.6 89.16) rotate(-45)"/><path class="cls-3" d="M101,10.06l-34.66-9-34.71,9L0,42.11l15,45,51.35,21.08L121,87.1l12.33-45Zm0,32H86.8v45h-41v-45H31.61V27.88H45.84V42.1h41V27.88H101Z"/><path class="cls-4" d="M175.11,87.8a15,15,0,0,1-11-4.56v3.87h-7.34v-47l7.34-.85V56.56a14.82,14.82,0,0,1,11-4.79c8.06,0,16.62,6.28,16.62,17.92C191.73,81.49,183.17,87.8,175.11,87.8Zm-.86-29.19a10.73,10.73,0,0,0-10.34,11.08c0,7.1,5.26,11.26,10.34,11.26,6,0,10-4.45,10-11.08v-.12C184.27,62.43,179.23,58.61,174.25,58.61Z"/><polygon class="cls-4" points="195.47 52.45 195.47 60.28 203.49 60.28 203.49 87.11 210.83 87.11 210.83 52.45 195.47 52.45"/><circle class="cls-4" cx="207.19" cy="44.07" r="4.31"/><path class="cls-4" d="M231.59,87.73a23.46,23.46,0,0,1-14.09-5l-.93-.76,3.87-5.46,1.05.78a17.46,17.46,0,0,0,10.35,3.85c2.67,0,5.37-1.18,5.37-3.82,0-2.17-2.49-3.26-7.08-4.54-4.88-1.38-11.55-3.28-11.55-10.3,0-6.28,5-10.59,12.2-10.59A23.18,23.18,0,0,1,243,55.64l1,.68-3.48,5.78-1.11-.72a17,17,0,0,0-8.81-2.89c-2.95,0-4.93,1.35-4.93,3.37,0,2.19,3.51,3.26,7.22,4.39,4.32,1.3,11.35,3.4,11.35,10.45C244.3,83.25,239.07,87.73,231.59,87.73Z"/><path class="cls-4" d="M281.56,87.11h-7.34v-20c0-5.34-2.77-8.41-7.6-8.41s-8.35,3.61-8.35,8.78V87.11h-7.34v-47l7.34-.85V55.6A13.2,13.2,0,0,1,268,51.77c8.25,0,13.58,5.54,13.58,14.13Z"/><path class="cls-4" d="M305.43,87.86a17.73,17.73,0,0,1-17.92-17.92v-.13a18,18,0,1,1,17.92,18Zm0-29.31c-6,0-10.46,4.79-10.46,11.14S299.62,81,305.56,81s10.52-4.76,10.52-11.07v-.13C316.08,63.49,311.4,58.55,305.43,58.55Z"/><path class="cls-4" d="M337.27,96.19l-7.34.86V52.45h7.34v4.11a14.82,14.82,0,0,1,11-4.79c8.06,0,16.62,6.28,16.62,17.92,0,11.8-8.56,18.11-16.62,18.11a15,15,0,0,1-11-4.56Zm10.14-37.58a10.72,10.72,0,0,0-10.33,11.08c0,7.1,5.25,11.26,10.33,11.26,6,0,10-4.45,10-11.08v-.12C357.44,62.43,352.39,58.61,347.41,58.61Z"/></g></svg>